<?xml version="1.0" standalone="no"?>
<!DOCTYPE svg PUBLIC "-//W3C//DTD SVG 20010904//EN"
 "http://www.w3.org/TR/2001/REC-SVG-20010904/DTD/svg10.dtd">
<svg version="1.0" xmlns="http://www.w3.org/2000/svg"
 width="1200.000000pt" height="1200.000000pt" viewBox="0 0 1200.000000 1200.000000"
 preserveAspectRatio="xMidYMid meet">
<metadata>
Created by potrace 1.14, written by Peter Selinger 2001-2017
</metadata>
<g transform="translate(0.000000,1200.000000) scale(0.100000,-0.100000)"
fill="#000000" stroke="none">
<path d="M5947 11944 c-1 -1 -85 -4 -187 -8 -102 -3 -201 -8 -220 -10 -19 -3
-71 -7 -115 -11 -44 -4 -89 -9 -100 -10 -11 -2 -47 -6 -79 -10 -32 -3 -62 -7
-65 -9 -3 -2 -35 -7 -70 -10 -36 -4 -67 -8 -70 -10 -3 -2 -28 -7 -56 -10 -27
-4 -57 -9 -65 -11 -8 -2 -26 -6 -40 -9 -941 -170 -1915 -630 -2670 -1259 -268
-223 -566 -520 -765 -760 -22 -27 -45 -54 -50 -60 -59 -67 -257 -335 -345
-467 -521 -784 -860 -1715 -955 -2625 -4 -38 -9 -78 -11 -88 -1 -9 -6 -59 -9
-110 -3 -50 -8 -123 -10 -162 -11 -167 -5 -619 10 -770 1 -16 6 -61 10 -100 6
-67 28 -248 40 -345 4 -25 8 -51 11 -59 2 -8 7 -37 10 -65 3 -28 7 -53 9 -56
2 -3 15 -64 30 -135 14 -72 40 -182 56 -245 17 -63 32 -122 34 -130 38 -161
180 -555 291 -807 80 -180 147 -315 257 -513 180 -325 459 -715 739 -1033 85
-97 363 -375 468 -469 282 -252 606 -490 922 -678 84 -50 164 -98 178 -106 14
-8 124 -64 245 -124 378 -187 728 -317 1140 -425 114 -29 398 -90 465 -100 25
-3 52 -8 60 -10 8 -2 35 -7 60 -10 25 -3 56 -8 70 -10 14 -2 50 -6 80 -10 30
-4 66 -8 80 -10 14 -2 54 -7 90 -10 36 -3 85 -7 110 -9 165 -17 598 -23 765
-11 44 3 112 7 150 9 114 7 187 15 342 36 147 20 202 28 243 36 14 2 37 7 51
9 24 4 201 41 239 50 924 207 1864 682 2560 1294 41 36 93 82 115 101 48 43
342 336 406 405 83 91 253 298 345 420 405 539 714 1133 915 1762 46 146 112
388 125 457 3 16 7 32 9 36 2 3 6 17 9 31 34 178 66 353 70 389 4 25 9 63 13
85 4 22 7 45 8 50 3 29 18 174 21 200 3 30 11 143 20 260 5 74 5 541 -1 610
-2 28 -6 97 -10 155 -4 57 -8 111 -10 120 -1 8 -6 46 -10 84 -4 38 -8 79 -10
90 -2 12 -6 44 -10 71 -5 46 -12 91 -21 140 -2 11 -7 40 -10 64 -3 25 -7 47
-9 51 -2 3 -6 26 -10 50 -3 25 -10 61 -15 80 -5 19 -12 47 -15 63 -3 15 -7 39
-11 55 -23 115 -106 407 -168 587 -93 275 -172 464 -315 750 -46 94 -102 199
-123 234 -21 34 -38 65 -38 67 0 22 -292 466 -387 589 -5 6 -39 51 -78 100
-139 181 -288 349 -490 550 -362 363 -716 638 -1160 904 -157 94 -477 260
-620 322 -149 65 -186 80 -275 114 -295 114 -622 211 -908 270 -110 23 -133
27 -214 40 -18 3 -40 8 -48 10 -8 2 -40 7 -70 10 -30 3 -62 8 -70 10 -8 2 -35
6 -60 9 -25 3 -88 9 -140 15 -52 6 -122 13 -155 16 -78 6 -523 23 -528 19z
m437 -818 c207 -181 452 -430 671 -681 14 -16 80 -98 147 -181 360 -452 650
-927 895 -1464 49 -107 67 -157 59 -162 -39 -22 -520 -149 -716 -187 -149 -30
-145 -29 -250 -47 -52 -8 -106 -17 -120 -20 -22 -3 -207 -27 -310 -39 -19 -2
-66 -7 -105 -10 -38 -4 -89 -8 -113 -10 -23 -2 -96 -7 -162 -10 -95 -5 -120
-3 -121 7 -1 16 -1 2837 0 2859 2 31 54 8 125 -55z m-641 -1364 c-1 -785 -2
-1433 -2 -1440 -1 -13 -53 -13 -276 3 -154 11 -381 36 -453 50 -11 2 -49 6
-83 10 -35 4 -66 8 -69 10 -4 2 -29 7 -56 11 -39 5 -198 37 -450 90 -91 19
-489 130 -510 142 -8 5 -5 21 11 57 13 28 43 93 67 145 377 829 936 1594 1623
2222 33 30 78 71 100 91 27 25 50 37 70 37 l30 0 -2 -1428z m-959 1276 c-10
-12 -36 -41 -58 -65 -83 -91 -102 -113 -215 -248 -294 -350 -549 -719 -776
-1120 -127 -226 -290 -557 -369 -747 -8 -21 -21 -38 -27 -38 -27 0 -306 124
-524 232 -320 160 -695 378 -695 405 0 15 331 348 425 429 38 32 81 69 95 82
14 13 71 60 128 105 476 378 1002 663 1582 857 170 57 407 126 444 129 5 1 1
-9 -10 -21z m2466 11 c19 -6 44 -12 55 -14 73 -12 445 -134 612 -201 465 -186
939 -459 1299 -747 28 -23 217 -180 230 -192 98 -88 276 -262 350 -341 l94
-102 -79 -50 c-97 -62 -360 -215 -461 -267 -109 -56 -370 -185 -375 -185 -2 0
-38 -16 -79 -35 -41 -19 -78 -35 -82 -35 -4 0 -31 -11 -60 -25 -109 -51 -95
-58 -149 68 -97 226 -273 573 -388 767 -72 122 -206 337 -246 395 -19 27 -59
85 -89 130 -53 76 -299 404 -312 415 -3 3 -52 61 -110 130 -57 68 -111 132
-120 140 -44 47 -117 127 -129 143 -16 20 -9 21 39 6z m-5392 -2051 c2 -4 8
-8 13 -8 5 0 40 -20 79 -45 261 -167 701 -396 1020 -531 58 -25 114 -49 125
-54 11 -5 32 -14 47 -19 l27 -10 -19 -53 c-35 -101 -124 -406 -145 -498 -2 -8
-13 -55 -25 -105 -12 -49 -24 -98 -26 -108 -2 -10 -5 -26 -8 -35 -3 -9 -7 -34
-11 -56 -3 -21 -7 -41 -9 -45 -2 -3 -7 -24 -10 -46 -3 -22 -13 -76 -21 -120
-8 -44 -17 -98 -20 -120 -3 -22 -8 -51 -10 -65 -6 -29 -10 -64 -25 -175 -14
-116 -18 -152 -26 -230 -3 -38 -8 -83 -10 -100 -2 -16 -6 -93 -10 -170 -3 -77
-8 -142 -10 -144 -2 -3 -1789 -4 -1947 -2 -21 1 -36 4 -34 9 3 4 8 59 12 122
3 63 8 117 10 120 1 3 6 40 10 83 3 43 8 88 10 100 2 12 9 58 15 102 7 44 14
89 16 100 8 38 12 60 19 100 4 22 16 78 27 125 11 47 22 96 24 110 10 53 94
340 132 450 58 170 130 347 209 520 17 36 33 72 37 80 9 21 106 206 137 260
80 139 112 190 212 342 l111 167 35 -21 c20 -12 38 -26 39 -30z m8474 -123
c59 -88 115 -173 124 -190 8 -16 21 -39 27 -50 85 -143 199 -365 284 -555 105
-233 240 -640 299 -902 2 -10 6 -28 9 -40 3 -13 12 -57 20 -98 8 -41 17 -86
20 -100 11 -53 16 -86 20 -110 4 -33 16 -119 20 -150 2 -14 7 -52 10 -85 3
-33 8 -69 10 -80 2 -11 7 -74 11 -140 l6 -120 -981 1 c-566 1 -986 5 -990 10
-5 5 -12 68 -16 139 -7 139 -9 162 -20 270 -3 39 -9 90 -11 115 -5 51 -13 113
-19 150 -2 14 -7 45 -10 70 -3 25 -7 56 -10 70 -3 14 -7 43 -10 65 -2 22 -9
65 -15 95 -6 30 -13 69 -15 85 -4 23 -51 249 -80 375 -22 98 -107 402 -155
548 -22 70 -25 92 -11 92 37 0 579 250 766 353 39 21 99 55 135 74 102 57 361
212 405 245 22 15 47 27 55 26 8 -2 63 -75 122 -163z m-6437 -790 c144 -41
196 -55 222 -61 7 -1 42 -10 79 -19 37 -9 75 -18 83 -20 9 -2 72 -15 141 -30
69 -15 136 -29 150 -31 22 -4 66 -12 110 -20 8 -2 33 -5 55 -9 22 -3 51 -7 65
-10 14 -3 43 -7 65 -10 22 -3 51 -7 65 -10 14 -2 43 -7 65 -9 22 -3 58 -7 80
-10 46 -6 112 -13 205 -21 36 -4 79 -8 96 -10 18 -2 92 -7 165 -10 118 -6 182
-11 199 -14 3 -1 5 -345 5 -766 0 -758 0 -765 -20 -766 -11 0 -560 -1 -1220
-1 l-1200 0 1 53 c0 62 14 278 19 311 2 13 6 53 10 90 3 37 8 77 10 90 2 13 6
43 9 68 9 70 16 123 21 149 2 13 7 45 11 70 4 25 9 55 11 66 2 11 6 34 9 50 3
17 11 59 19 95 8 36 17 80 20 99 21 123 119 494 176 667 l31 92 46 -15 c26 -8
115 -34 197 -58z m4504 -83 c55 -179 136 -496 166 -647 9 -49 33 -177 39 -215
4 -19 8 -46 11 -60 7 -39 14 -83 20 -126 3 -21 7 -55 10 -74 11 -83 14 -108
19 -160 15 -133 19 -190 31 -382 l5 -78 -38 -1 c-210 -4 -2394 0 -2398 4 -5 4
-9 1456 -5 1522 1 6 18 11 39 11 53 1 270 14 312 19 19 2 71 7 115 10 75 5
126 11 185 20 14 2 50 6 80 10 30 3 66 8 80 10 14 2 45 7 70 10 278 36 802
155 1130 258 51 16 77 20 82 13 3 -6 25 -71 47 -144z m-5621 -2266 c4 -4 8
-22 8 -39 3 -69 15 -294 18 -322 2 -16 7 -65 10 -107 4 -43 9 -88 11 -100 2
-13 6 -50 10 -83 3 -33 8 -73 10 -90 3 -16 7 -48 11 -70 3 -22 7 -53 9 -70 2
-16 6 -46 10 -65 3 -19 8 -48 11 -65 2 -16 11 -64 19 -105 8 -41 16 -86 19
-100 22 -132 111 -483 181 -715 15 -49 31 -102 35 -116 8 -26 5 -28 -83 -65
-84 -34 -126 -53 -297 -131 -256 -116 -643 -328 -878 -480 -47 -30 -90 -52
-97 -49 -7 2 -54 67 -104 143 -50 76 -95 143 -99 149 -34 49 -142 242 -212
379 -225 441 -381 889 -470 1345 -5 30 -12 66 -15 80 -5 23 -21 123 -30 180
-13 87 -16 111 -21 165 -3 33 -7 78 -10 100 -2 22 -7 85 -10 140 l-6 100 981
-1 c540 -1 985 -5 989 -8z m2959 0 c9 -8 8 -1515 -1 -1523 -4 -4 -28 -8 -54
-9 -133 -6 -295 -17 -412 -29 -19 -2 -62 -7 -95 -10 -66 -7 -196 -23 -235 -29
-14 -3 -47 -7 -75 -11 -27 -3 -77 -10 -110 -16 -33 -6 -71 -13 -85 -15 -283
-48 -675 -143 -960 -233 -79 -25 -76 -25 -83 -3 -3 9 -21 69 -41 133 -59 192
-150 569 -180 752 -3 15 -7 35 -10 45 -3 9 -7 35 -10 57 -2 22 -9 69 -15 105
-6 36 -13 88 -16 115 -4 28 -8 61 -10 75 -13 86 -32 303 -41 472 l-6 126 23 4
c45 6 2409 1 2416 -6z m2957 -87 c-1 -91 -9 -218 -19 -316 -14 -140 -27 -251
-30 -273 -3 -14 -11 -70 -19 -125 -35 -229 -116 -621 -145 -698 -6 -15 -8 -27
-6 -27 2 0 0 -11 -5 -25 -5 -14 -12 -36 -14 -48 -10 -47 -84 -285 -91 -295 -2
-2 -63 15 -136 38 -196 60 -555 151 -654 167 -16 2 -46 8 -65 13 -19 5 -51 12
-70 15 -19 3 -71 12 -115 20 -84 14 -251 40 -320 49 -111 14 -152 19 -175 21
-24 2 -120 11 -205 20 -46 5 -272 18 -327 19 -21 1 -38 6 -39 11 -1 14 -1
1497 0 1512 1 6 13 13 29 15 15 2 563 2 1217 2 l1190 -2 -1 -93z m2490 88 c8
-3 14 -12 11 -19 -2 -7 -6 -51 -10 -98 -3 -47 -7 -98 -9 -115 -2 -16 -7 -64
-11 -105 -3 -41 -8 -82 -10 -90 -2 -8 -7 -35 -10 -60 -11 -81 -25 -163 -60
-345 -10 -53 -36 -156 -72 -285 -19 -69 -40 -143 -45 -165 -6 -22 -14 -44 -18
-50 -4 -5 -11 -25 -15 -43 -28 -131 -272 -690 -385 -882 -122 -207 -193 -321
-259 -416 l-77 -112 -99 64 c-92 58 -314 189 -445 262 -172 96 -604 299 -788
372 -24 9 -31 17 -27 29 4 9 26 82 51 162 65 216 117 425 179 720 2 9 6 34 9
55 6 38 22 129 30 170 2 12 7 45 11 74 4 29 9 62 11 74 2 12 6 44 9 71 4 28 8
61 10 75 7 49 20 173 30 290 3 30 8 109 11 175 3 66 7 135 8 153 1 18 7 36 13
40 14 9 1934 7 1957 -1z m-5443 -2069 c0 -13 1 -660 1 -1438 l1 -1415 -60 -3
-59 -3 -65 58 c-294 264 -634 637 -891 979 -155 205 -366 530 -488 749 -18 33
-42 76 -53 95 -46 81 -199 395 -252 515 -31 72 -59 133 -62 138 -6 10 25 20
207 73 223 65 654 163 790 180 19 2 46 6 60 9 70 13 289 43 380 51 41 3 82 8
91 9 9 2 65 6 125 10 60 4 110 8 111 9 1 0 38 2 82 4 78 2 81 2 82 -20z m789
8 c25 -2 79 -7 120 -11 86 -7 109 -9 275 -30 66 -8 145 -20 175 -25 30 -5 69
-12 85 -14 145 -18 466 -89 710 -156 243 -66 285 -81 285 -96 0 -32 -207 -473
-310 -660 -161 -293 -361 -603 -553 -856 -67 -90 -129 -170 -137 -178 -8 -9
-31 -36 -50 -60 -32 -41 -122 -146 -210 -245 -54 -61 -397 -404 -473 -473 -68
-62 -68 -62 -130 -62 l-62 0 2 1432 c1 788 2 1437 2 1441 1 7 166 3 271 -7z
m-3155 -608 c14 -31 25 -59 25 -61 0 -3 21 -49 47 -103 25 -55 47 -101 48
-104 9 -41 294 -567 386 -713 111 -175 276 -419 361 -532 111 -149 392 -490
461 -558 16 -16 27 -31 24 -33 -10 -11 -508 140 -582 176 -11 5 -76 32 -145
60 -605 248 -1192 642 -1670 1120 -80 80 -162 164 -182 186 l-37 42 54 36 c30
20 59 36 65 36 5 0 10 5 10 10 0 6 4 10 8 10 5 0 61 32 126 70 64 39 119 70
121 70 2 0 28 14 57 31 83 49 430 221 563 278 179 78 179 78 195 83 15 5 19 1
65 -104z m5439 53 c23 -10 75 -33 116 -51 89 -38 372 -178 485 -239 102 -56
423 -246 454 -270 l23 -18 -193 -194 c-258 -258 -493 -457 -759 -638 -113 -77
-327 -211 -337 -211 -3 0 -17 -9 -33 -20 -91 -65 -583 -294 -770 -359 -36 -13
-74 -27 -85 -31 -37 -16 -172 -58 -286 -90 -63 -17 -127 -36 -143 -41 -31 -10
-30 -6 23 50 123 133 368 436 493 607 123 169 299 436 383 582 188 325 321
589 444 879 l44 102 50 -20 c28 -11 69 -28 91 -38z"/>
</g>
</svg>
